<svg width="16" height="16" viewBox="0 0 16 16" fill="none" xmlns="http://www.w3.org/2000/svg">
<g id="Frame 45">
<rect width="16" height="16" rx="8" fill="#E30016"/>
<g id="Layer1004">
<path id="path31" fill-rule="evenodd" clip-rule="evenodd" d="M3.00488 8.29204C3.0468 8.82145 3.04764 8.83128 3.10679 9.114C3.14844 9.27666 3.20394 9.49372 3.25472 9.65351C3.89887 11.1892 7.2303 12.4008 9.44501 12.3646C6.61097 10.9278 2.67959 9.24731 3.07053 7.28716C3.01539 7.72549 2.98819 7.94548 3.00488 8.29204ZM4.83248 4.17426C4.44473 4.53904 4.42963 4.55333 4.23246 4.78695C3.90403 5.2099 3.89119 5.22633 3.73693 5.48278C3.65758 5.62791 3.55056 5.82098 3.47925 5.96943C2.58478 8.00439 8.07799 10.4891 11.3483 10.0463C9.14198 8.92677 10.3928 9.54485 9.20817 8.88013C6.25115 7.22109 3.31456 5.30537 5.2265 3.85986C5.10728 3.95321 4.94476 4.07354 4.83248 4.17426Z" fill="#D9DADB"/>
<path id="path41" d="M12.2853 4.30771C9.96027 2.40562 6.43594 2.77117 4.83249 4.17407C4.20616 4.72683 3.85092 5.24415 3.47929 5.96924C5.02703 4.01398 8.53324 3.41299 12.2853 4.30771ZM13.3427 6.70808C11.1748 4.48421 6.26262 4.31697 3.87284 6.22687C3.43296 6.53959 3.17456 6.80109 3.07055 7.28695C3.00768 7.71024 3.00728 7.7877 3.00488 8.29184C3.01647 8.58254 3.01992 8.60263 3.10679 9.11381C3.14467 9.27746 3.20765 9.4924 3.25476 9.6533C2.45036 7.19128 8.37331 5.44342 13.3427 6.70808ZM7.66123 12.9959C7.54156 13.023 7.03895 12.9079 6.88064 12.8744C5.78156 12.6026 4.93857 12.098 4.20521 11.2936C3.60364 10.5564 3.44538 9.93075 4.34247 9.05041C6.47473 6.95801 11.4644 7.30202 13.3649 9.29526C8.17836 8.36331 3.25935 10.4161 6.1249 12.2815C6.10861 12.1803 6.13923 12.0723 6.23237 11.9604C7.37316 10.9866 11.4257 11.462 11.5589 12.011C9.5365 11.6926 6.32623 12.3091 7.49251 12.9206C7.51766 12.9372 7.55211 12.9537 7.58259 12.9673C7.60914 12.9768 7.63417 12.9864 7.66123 12.9959Z" fill="white"/>
</g>
</g>
</svg>
