<svg width="446" height="104" viewBox="0 0 446 104" fill="none" xmlns="http://www.w3.org/2000/svg">
<path fill-rule="evenodd" clip-rule="evenodd" d="M0.0502247 54.5826C0.482638 60.0432 0.491305 60.1446 1.10139 63.0606C1.53097 64.7384 2.10344 66.9773 2.62725 68.6254C9.27125 84.4654 43.6331 96.9623 66.4766 96.5886C37.2451 81.7692 -3.30491 64.4357 0.727445 44.2179C0.158652 48.7389 -0.121917 51.008 0.0502247 54.5826ZM18.901 12.11C14.9016 15.8726 14.7458 16.0199 12.7121 18.4296C9.32448 22.7921 9.19206 22.9615 7.60092 25.6067C6.7825 27.1036 5.67869 29.095 4.94315 30.6261C-4.28285 51.6157 52.3766 77.2437 86.1082 72.6763C63.351 61.1295 76.253 67.5046 64.0337 60.6484C33.5338 43.5364 3.24445 23.7768 22.965 8.86719C21.7353 9.82997 20.059 11.0712 18.901 12.11Z" fill="#D9DADB"/>
<path d="M95.7723 13.4883C71.7909 -6.13065 35.4395 -2.3603 18.9008 12.1099C12.4406 17.8112 8.77647 23.1472 4.94322 30.6261C20.9073 10.4586 57.0719 4.25979 95.7723 13.4883ZM106.679 38.2467C84.3177 15.3088 33.6518 13.5838 9.00253 33.2833C4.46539 36.5089 1.8001 39.2061 0.727368 44.2175C0.0788197 48.5835 0.0747114 49.3824 0.0500183 54.5824C0.16951 57.5807 0.205119 57.7879 1.10117 63.0605C1.49186 64.7485 2.14141 66.9654 2.62733 68.625C-5.66955 43.2307 55.4223 25.2025 106.679 38.2467ZM48.0776 103.102C46.8433 103.382 41.6591 102.194 40.0263 101.849C28.6899 99.0451 19.9949 93.8405 12.4308 85.544C6.22583 77.9397 4.59354 71.4868 13.8465 62.4066C35.8395 40.8246 87.3053 44.3729 106.907 64.9321C53.4115 55.3195 2.67472 76.493 32.2312 95.7338C32.0632 94.6897 32.3791 93.5753 33.3397 92.4215C45.1064 82.3775 86.906 87.2812 88.28 92.9429C67.42 89.6597 34.3078 96.0186 46.3373 102.325C46.5968 102.497 46.9521 102.667 47.2665 102.807C47.5404 102.905 47.7985 103.004 48.0776 103.102Z" fill="url(#paint0_linear_7_1147)"/>
<path fill-rule="evenodd" clip-rule="evenodd" d="M161.519 86.1956L165.247 72.5385H168.71L165.605 83.8981H174.117L173.229 86.1956H161.519ZM199.79 74.5172C199.121 74.5172 198.48 74.5419 197.867 74.5913C197.254 74.6413 196.677 74.8182 196.136 75.1234C195.595 75.4283 195.103 75.9066 194.659 76.5593C194.216 77.2116 193.829 78.1403 193.498 79.3458C193.168 80.5513 193.045 81.4802 193.13 82.1326C193.216 82.7849 193.446 83.2636 193.821 83.5685C194.196 83.8733 194.676 84.0506 195.262 84.1002C195.847 84.15 196.475 84.1747 197.145 84.1747C197.797 84.1747 198.429 84.15 199.042 84.1002C199.655 84.0506 200.232 83.8733 200.773 83.5685C201.314 83.2636 201.811 82.7849 202.263 82.1326C202.715 81.4802 203.107 80.5513 203.437 79.3458C203.768 78.1403 203.886 77.2116 203.791 76.5593C203.698 75.9066 203.459 75.4283 203.074 75.1234C202.691 74.8182 202.206 74.6413 201.621 74.5913C201.035 74.5419 200.425 74.5172 199.79 74.5172ZM189.956 79.3458C190.372 77.8141 190.93 76.584 191.629 75.6551C192.329 74.7261 193.131 74.0098 194.035 73.5067C194.94 73.0032 195.934 72.6698 197.015 72.5069C198.098 72.3437 199.229 72.2622 200.41 72.2622C201.59 72.2622 202.676 72.3437 203.664 72.5069C204.652 72.6698 205.461 73.0032 206.089 73.5067C206.718 74.0098 207.128 74.7261 207.318 75.6551C207.508 76.584 207.395 77.8141 206.98 79.3458C206.564 80.8773 206.006 82.1079 205.306 83.0368C204.606 83.9655 203.8 84.6816 202.887 85.1852C201.974 85.6886 200.98 86.022 199.906 86.185C198.833 86.3482 197.706 86.4297 196.525 86.4297C195.345 86.4297 194.26 86.3482 193.271 86.185C192.283 86.022 191.475 85.6886 190.846 85.1852C190.218 84.6816 189.808 83.9655 189.618 83.0368C189.428 82.1079 189.54 80.8773 189.956 79.3458ZM234.543 80.2604H230.711L231.596 77.9846H238.548L236.562 85.2384C236.158 85.4086 235.676 85.5646 235.116 85.7061C234.555 85.8482 233.957 85.9722 233.321 86.0788C232.685 86.185 232.029 86.2663 231.354 86.3231C230.679 86.3797 230.024 86.4084 229.389 86.4084C228.05 86.4084 226.891 86.3231 225.912 86.1529C224.933 85.9829 224.165 85.6426 223.607 85.1318C223.05 84.6215 222.716 83.898 222.606 82.9621C222.496 82.0264 222.648 80.7994 223.062 79.282C223.475 77.7787 224.009 76.5661 224.664 75.6444C225.319 74.7227 226.09 74.0136 226.976 73.5174C227.862 73.0207 228.851 72.6877 229.943 72.5175C231.035 72.3471 232.232 72.2622 233.537 72.2622C234.77 72.2622 235.886 72.3402 236.883 72.4962C237.881 72.6523 238.71 72.8719 239.369 73.1554L237.884 75.3468C237.424 75.1908 236.758 75.0168 235.887 74.8255C235.016 74.634 234.043 74.5385 232.968 74.5385C232.245 74.5385 231.567 74.5772 230.934 74.6553C230.3 74.7333 229.713 74.9281 229.171 75.2402C228.629 75.5523 228.142 76.0238 227.71 76.6548C227.277 77.2859 226.909 78.1548 226.606 79.2607C226.328 80.2958 226.188 81.1328 226.187 81.771C226.185 82.4092 226.335 82.9021 226.635 83.2495C226.936 83.5966 227.397 83.8306 228.02 83.9513C228.642 84.0719 229.438 84.1321 230.407 84.1321C230.953 84.1321 231.525 84.0933 232.124 84.0153C232.722 83.9372 233.211 83.8485 233.591 83.7493L234.543 80.2604ZM252.651 86.1956L256.379 72.5385H259.868L256.14 86.1956H252.651ZM288.07 75.3042C287.83 75.233 287.52 75.155 287.141 75.0702C286.762 74.9849 286.338 74.9034 285.87 74.8255C285.402 74.7474 284.901 74.6834 284.369 74.634C283.836 74.5845 283.305 74.5594 282.777 74.5594C281.719 74.5594 280.894 74.666 280.3 74.8787C279.707 75.0915 279.338 75.4742 279.196 76.0272C279.111 76.3534 279.055 76.6016 279.029 76.7721C279.003 76.9422 279.034 77.0804 279.121 77.1865C279.207 77.2931 279.357 77.3818 279.57 77.4525C279.783 77.5233 280.088 77.6086 280.483 77.708C281.415 77.9065 282.358 78.0873 283.311 78.2503C284.264 78.4135 285.105 78.6437 285.833 78.9418C286.562 79.2394 287.11 79.6579 287.48 80.1969C287.85 80.7358 287.908 81.4802 287.656 82.4305C287.433 83.253 287.085 83.9231 286.611 84.4408C286.138 84.9582 285.564 85.3659 284.891 85.6639C284.219 85.9616 283.445 86.1636 282.571 86.2701C281.697 86.3763 280.758 86.4297 279.753 86.4297C279.137 86.4297 278.492 86.405 277.818 86.355C277.144 86.3056 276.491 86.231 275.858 86.1316C275.224 86.0323 274.636 85.9227 274.093 85.8021C273.549 85.6814 273.101 85.5433 272.746 85.3872C273 84.9618 273.236 84.5755 273.455 84.228C273.675 83.8806 273.917 83.5224 274.183 83.1536C274.403 83.2389 274.72 83.3378 275.131 83.4516C275.543 83.565 276.026 83.6712 276.58 83.7706C277.134 83.8699 277.751 83.9547 278.432 84.0259C279.112 84.0967 279.839 84.1321 280.615 84.1321C281.108 84.1321 281.559 84.1212 281.966 84.1002C282.374 84.0789 282.728 84.0187 283.028 83.9193C283.329 83.82 283.582 83.6606 283.79 83.441C283.996 83.221 284.154 82.9127 284.264 82.5153C284.346 82.2178 284.374 81.9764 284.349 81.7923C284.323 81.6077 284.245 81.4624 284.114 81.3562C283.984 81.2496 283.79 81.1647 283.531 81.1007C283.274 81.0368 282.954 80.9694 282.573 80.8987C281.154 80.6433 279.956 80.413 278.981 80.2075C278.006 80.0017 277.239 79.736 276.68 79.4094C276.122 79.0833 275.772 78.6582 275.63 78.1333C275.488 77.6086 275.541 76.8995 275.788 76.0059C275.955 75.3821 276.265 74.8361 276.716 74.3679C277.168 73.9002 277.721 73.5136 278.377 73.2087C279.033 72.9038 279.756 72.6732 280.547 72.5175C281.337 72.3615 282.156 72.2835 283.002 72.2835C283.618 72.2835 284.247 72.3011 284.887 72.3364C285.526 72.3722 286.138 72.4251 286.721 72.4962C287.305 72.567 287.842 72.6524 288.335 72.7513C288.827 72.8507 289.234 72.9713 289.555 73.1132L288.07 75.3042ZM306.77 86.1956L309.878 74.8147H304.67L305.556 72.5385H319.539L318.653 74.8147H313.367L310.26 86.1956H306.77ZM330.91 86.1956L334.638 72.5385H338.127L334.399 86.1956H330.91ZM365.978 85.5361C365.157 85.8199 364.183 86.0467 363.056 86.2169C361.929 86.387 360.749 86.4722 359.515 86.4722C358.211 86.4722 357.061 86.3835 356.065 86.2063C355.07 86.0288 354.267 85.6853 353.656 85.1744C353.046 84.6642 352.668 83.944 352.521 83.0155C352.375 82.0864 352.509 80.8705 352.921 79.3673C353.334 77.864 353.869 76.6476 354.524 75.7191C355.18 74.79 355.947 74.0704 356.826 73.5596C357.705 73.0492 358.695 72.7051 359.796 72.5279C360.897 72.3509 362.1 72.2622 363.404 72.2622C365.889 72.2622 367.791 72.5458 369.109 73.1132L367.624 75.3042C367.16 75.1763 366.515 75.0168 365.688 74.8255C364.862 74.634 363.911 74.5385 362.836 74.5385C362.113 74.5385 361.43 74.5806 360.788 74.6659C360.145 74.7508 359.556 74.9567 359.021 75.2829C358.487 75.6091 358.003 76.0946 357.569 76.7401C357.135 77.3852 356.767 78.2609 356.463 79.3673C356.159 80.4877 356.046 81.3702 356.123 82.0157C356.2 82.6608 356.421 83.143 356.786 83.4619C357.151 83.7812 357.629 83.9833 358.22 84.0685C358.81 84.1534 359.467 84.1961 360.19 84.1961C360.718 84.1961 361.255 84.164 361.798 84.1002C362.342 84.0366 362.856 83.9619 363.34 83.8767C363.824 83.7918 364.27 83.6998 364.676 83.6004C365.082 83.5011 365.421 83.4159 365.692 83.3451L365.978 85.5361ZM396.6 75.3042C396.361 75.233 396.051 75.155 395.672 75.0702C395.293 74.9849 394.869 74.9034 394.401 74.8255C393.932 74.7474 393.432 74.6834 392.9 74.634C392.367 74.5845 391.836 74.5594 391.308 74.5594C390.25 74.5594 389.425 74.666 388.831 74.8787C388.238 75.0915 387.869 75.4742 387.726 76.0272C387.641 76.3534 387.586 76.6016 387.56 76.7721C387.534 76.9422 387.565 77.0804 387.652 77.1865C387.738 77.2931 387.888 77.3818 388.101 77.4525C388.314 77.5233 388.619 77.6086 389.014 77.708C389.946 77.9065 390.889 78.0873 391.841 78.2503C392.795 78.4135 393.636 78.6437 394.364 78.9418C395.092 79.2394 395.641 79.6579 396.011 80.1969C396.381 80.7358 396.439 81.4802 396.187 82.4305C395.964 83.253 395.616 83.9231 395.142 84.4408C394.668 84.9582 394.094 85.3659 393.422 85.6639C392.749 85.9616 391.976 86.1636 391.102 86.2701C390.228 86.3763 389.289 86.4297 388.284 86.4297C387.668 86.4297 387.023 86.405 386.349 86.355C385.675 86.3056 385.022 86.231 384.388 86.1316C383.755 86.0323 383.167 85.9227 382.623 85.8021C382.08 85.6814 381.631 85.5433 381.277 85.3872C381.53 84.9618 381.767 84.5755 381.986 84.228C382.205 83.8806 382.448 83.5224 382.714 83.1536C382.934 83.2389 383.25 83.3378 383.662 83.4516C384.074 83.565 384.557 83.6712 385.111 83.7706C385.665 83.8699 386.282 83.9547 386.963 84.0259C387.643 84.0967 388.37 84.1321 389.146 84.1321C389.639 84.1321 390.089 84.1212 390.497 84.1002C390.905 84.0789 391.259 84.0187 391.559 83.9193C391.859 83.82 392.113 83.6606 392.32 83.441C392.527 83.221 392.685 82.9127 392.795 82.5153C392.877 82.2178 392.905 81.9764 392.88 81.7923C392.854 81.6077 392.775 81.4624 392.645 81.3562C392.515 81.2496 392.32 81.1647 392.062 81.1007C391.805 81.0368 391.485 80.9694 391.104 80.8987C389.684 80.6433 388.487 80.413 387.512 80.2075C386.536 80.0017 385.77 79.736 385.211 79.4094C384.653 79.0833 384.303 78.6582 384.161 78.1333C384.019 77.6086 384.072 76.8995 384.318 76.0059C384.486 75.3821 384.795 74.8361 385.247 74.3679C385.698 73.9002 386.252 73.5136 386.908 73.2087C387.563 72.9038 388.287 72.6732 389.078 72.5175C389.868 72.3615 390.686 72.2835 391.533 72.2835C392.149 72.2835 392.778 72.3011 393.418 72.3364C394.057 72.3722 394.669 72.4251 395.252 72.4962C395.836 72.567 396.373 72.6524 396.866 72.7513C397.358 72.8507 397.765 72.9713 398.086 73.1132L396.6 75.3042Z" fill="white"/>
<path fill-rule="evenodd" clip-rule="evenodd" d="M443.526 65.1585H426.779L418.045 56.1901H402.175L399.676 65.1585H388.134L393.215 46.9244H425.264C427.222 46.9244 428.915 46.6437 430.343 46.0819C432.16 45.355 433.266 44.2817 433.662 42.8612C434.435 40.0864 432.4 38.6989 427.556 38.6989H395.507L405.611 29.4331H429.056C434.861 29.4331 439.273 30.4903 442.291 32.6046C445.672 35.0158 446.742 38.4515 445.499 42.9109C444.8 45.4211 443.351 47.6928 441.153 49.7241C438.955 51.7554 436.262 53.3162 433.073 54.4059L443.526 65.1585Z" fill="white"/>
<path fill-rule="evenodd" clip-rule="evenodd" d="M342.945 65.1585L352.483 55.893H367.992L361.933 43.0593L339.029 65.1585H324.756L357.411 33.3972C358.462 32.34 359.767 31.4153 361.328 30.6224C363.044 29.7638 364.589 29.334 365.964 29.334C367.372 29.334 368.678 29.7638 369.881 30.6224C370.941 31.3823 371.713 32.307 372.2 33.3972L386.588 65.1585H342.945Z" fill="white"/>
<path fill-rule="evenodd" clip-rule="evenodd" d="M332.739 48.9061C329.72 59.7408 320.481 65.1585 305.024 65.1585H302.602C287.144 65.1585 280.924 59.7408 283.943 48.9061L289.369 29.4331H300.859L295.434 48.9061C294.532 52.1435 295.43 54.2248 298.125 55.1494C299.558 55.6782 302.713 55.9423 307.592 55.9423C311.473 55.9423 314.349 55.5462 316.219 54.753C318.737 53.729 320.396 51.78 321.197 48.9061L326.623 29.4331H338.165L332.739 48.9061Z" fill="white"/>
<path fill-rule="evenodd" clip-rule="evenodd" d="M278.591 65.1585H261.845L253.111 56.1901H237.241L234.742 65.1585H223.2L228.281 46.9244H260.33C262.289 46.9244 263.981 46.6437 265.409 46.0819C267.226 45.355 268.332 44.2817 268.728 42.8612C269.501 40.0864 267.466 38.6989 262.622 38.6989H230.573L240.678 29.4331H264.122C269.928 29.4331 274.339 30.4903 277.357 32.6046C280.738 35.0158 281.808 38.4515 280.565 42.9109C279.866 45.4211 278.417 47.6928 276.219 49.7241C274.022 51.7554 271.328 53.3162 268.139 54.4059L278.591 65.1585Z" fill="white"/>
<path fill-rule="evenodd" clip-rule="evenodd" d="M178.32 65.1585L187.859 55.893H203.368L197.309 43.0593L174.404 65.1585H160.132L192.787 33.3972C193.837 32.34 195.143 31.4153 196.703 30.6224C198.42 29.7638 199.965 29.334 201.339 29.334C202.748 29.334 204.053 29.7638 205.257 30.6224C206.316 31.3823 207.089 32.307 207.575 33.3972L221.964 65.1585H178.32Z" fill="white"/>
<path fill-rule="evenodd" clip-rule="evenodd" d="M172.354 29.4331L162.353 38.6989H136.074C134.666 38.6989 133.828 39.1783 133.561 40.1361C133.294 41.0937 133.865 41.5728 135.273 41.5728H154.184C158.684 41.5728 162.151 42.6302 164.585 44.7442C167.085 46.9905 167.837 49.8974 166.843 53.4648C165.858 56.9996 163.482 59.8569 159.714 62.037C156.18 64.1182 152.146 65.1585 147.612 65.1585H113.604L123.592 55.9423H150.18C151.382 55.9423 152.52 55.7443 153.591 55.3475C154.967 54.8523 155.774 54.1751 156.013 53.3162C156.262 52.4245 155.832 51.7471 154.724 51.2849C153.888 50.9541 152.852 50.7891 151.615 50.7891H132.706C128.515 50.7891 125.269 49.8644 122.967 48.0143C120.496 46.0322 119.717 43.4061 120.628 40.1361C121.549 36.8324 123.796 34.1901 127.371 32.2079C130.704 30.3581 134.465 29.4331 138.656 29.4331H172.354Z" fill="white"/>
<defs>
<linearGradient id="paint0_linear_7_1147" x1="0.0500183" y1="1.04688e-05" x2="0.0500183" y2="103.144" gradientUnits="userSpaceOnUse">
<stop stop-color="#B70814"/>
<stop offset="1" stop-color="#E30016"/>
</linearGradient>
</defs>
</svg>
