<svg width="167" height="40" viewBox="0 0 167 40" fill="none" xmlns="http://www.w3.org/2000/svg">
<g id="Layer1003">
<g id="Layer1004">
<path id="path31" fill-rule="evenodd" clip-rule="evenodd" d="M0.018829 21.2515C0.180741 23.2961 0.183987 23.3341 0.412428 24.426C0.573278 25.0542 0.787636 25.8925 0.983769 26.5096C3.47155 32.4408 16.338 37.1201 24.8915 36.9802C13.9461 31.4312 -1.23747 24.9408 0.272407 17.3705C0.0594284 19.0633 -0.0456278 19.913 0.018829 21.2515ZM7.0773 5.34802C5.57976 6.75688 5.52141 6.81206 4.75994 7.71432C3.49148 9.34781 3.44189 9.41127 2.84611 10.4017C2.53966 10.9622 2.12635 11.7079 1.85093 12.2812C-1.60364 20.1405 19.6119 29.7366 32.2423 28.0265C23.7211 23.7029 28.5521 26.09 23.9768 23.5227C12.5564 17.1153 1.21487 9.71653 8.59903 4.13379C8.13858 4.49429 7.51091 4.95905 7.0773 5.34802Z" fill="#D9DADB"/>
<path id="path41" d="M35.8611 5.86404C26.8815 -1.48208 13.2701 -0.0703143 7.07736 5.34789C4.6584 7.48271 3.28642 9.4807 1.8511 12.2811C7.82868 4.7296 21.3701 2.40851 35.8611 5.86404ZM39.945 15.1346C31.5721 6.54571 12.6007 5.8998 3.37107 13.2761C1.67218 14.4839 0.674189 15.4938 0.272517 17.3703C0.0296748 19.0051 0.0281364 19.3042 0.0188904 21.2513C0.0636328 22.374 0.0769664 22.4516 0.412482 24.4258C0.558772 25.0579 0.80199 25.888 0.983936 26.5094C-2.12274 17.0008 20.7525 10.2503 39.945 15.1346ZM18.0023 39.419C17.5401 39.5237 15.599 39.079 14.9876 38.9497C10.7428 37.8999 7.48705 35.951 4.65473 32.8445C2.33136 29.9972 1.72016 27.5809 5.18484 24.181C13.4199 16.0998 32.6907 17.4285 40.0305 25.1266C19.9995 21.5273 1.00168 29.4555 12.0688 36.66C12.0059 36.269 12.1242 35.8518 12.4839 35.4197C16.8898 31.6589 32.5412 33.495 33.0557 35.615C25.2449 34.3856 12.8464 36.7666 17.3507 39.128C17.4478 39.1923 17.5809 39.2559 17.6986 39.3085C17.8012 39.3453 17.8978 39.3824 18.0023 39.419Z" fill="white"/>
</g>
<path id="path44" fill-rule="evenodd" clip-rule="evenodd" d="M60.4789 33.0888L61.8751 27.975H63.1716L62.009 32.2285H65.1963L64.8636 33.0888H60.4789ZM74.8094 28.7159C74.5586 28.7159 74.3186 28.7252 74.0893 28.7437C73.8597 28.7624 73.6436 28.8287 73.4409 28.9429C73.2383 29.0571 73.0541 29.2362 72.8881 29.4806C72.722 29.7248 72.5771 30.0726 72.4533 30.524C72.3296 30.9753 72.2836 31.3232 72.3155 31.5674C72.3475 31.8117 72.4337 31.9909 72.5741 32.1051C72.7146 32.2192 72.8944 32.2856 73.1137 32.3042C73.333 32.3228 73.568 32.3321 73.8187 32.3321C74.063 32.3321 74.2996 32.3228 74.5291 32.3042C74.7585 32.2856 74.9746 32.2192 75.1773 32.1051C75.3799 31.9909 75.566 31.8117 75.7352 31.5674C75.9045 31.3232 76.0512 30.9753 76.1749 30.524C76.2987 30.0726 76.3429 29.7248 76.3075 29.4806C76.2725 29.2362 76.183 29.0571 76.0391 28.9429C75.8953 28.8287 75.7138 28.7624 75.4947 28.7437C75.2756 28.7252 75.0471 28.7159 74.8094 28.7159ZM71.127 30.524C71.2826 29.9504 71.4917 29.4898 71.7535 29.142C72.0155 28.7942 72.3158 28.526 72.6545 28.3376C72.9933 28.149 73.3652 28.0242 73.7703 27.9632C74.1756 27.9021 74.5993 27.8716 75.0415 27.8716C75.4834 27.8716 75.8897 27.9021 76.2598 27.9632C76.6299 28.0242 76.9325 28.149 77.1678 28.3376C77.4033 28.526 77.5567 28.7942 77.6279 29.142C77.699 29.4898 77.6569 29.9504 77.5013 30.524C77.3456 31.0974 77.1366 31.5582 76.8746 31.906C76.6126 32.2537 76.3107 32.5219 75.9688 32.7105C75.6268 32.899 75.2547 33.0238 74.8528 33.0848C74.4508 33.1459 74.0288 33.1764 73.5866 33.1764C73.1447 33.1764 72.7384 33.1459 72.3684 33.0848C71.9983 33.0238 71.6956 32.899 71.4602 32.7105C71.2249 32.5219 71.0714 32.2537 71.0003 31.906C70.9291 31.5582 70.9712 31.0974 71.127 30.524ZM87.8222 30.8664H86.3871L86.7187 30.0143H89.3218L88.5783 32.7304C88.4269 32.7941 88.2463 32.8525 88.0365 32.9055C87.8267 32.9587 87.6028 33.0052 87.3645 33.0451C87.1263 33.0848 86.8809 33.1153 86.628 33.1365C86.3752 33.1577 86.13 33.1685 85.8923 33.1685C85.3908 33.1685 84.9569 33.1365 84.5903 33.0728C84.2238 33.0091 83.9363 32.8817 83.7274 32.6905C83.5186 32.4994 83.3936 32.2285 83.3526 31.8781C83.3112 31.5277 83.368 31.0682 83.5231 30.5001C83.6779 29.9372 83.8777 29.4831 84.1229 29.138C84.3684 28.7929 84.6568 28.5274 84.9886 28.3416C85.3204 28.1556 85.6907 28.0309 86.0995 27.9672C86.5084 27.9034 86.9569 27.8716 87.4453 27.8716C87.9071 27.8716 88.3249 27.9008 88.6984 27.9592C89.0721 28.0177 89.3824 28.0999 89.6293 28.206L89.0731 29.0266C88.9007 28.9682 88.6513 28.903 88.3253 28.8314C87.9991 28.7597 87.6347 28.7239 87.2323 28.7239C86.9617 28.7239 86.7079 28.7384 86.4707 28.7676C86.2335 28.7969 86.0135 28.8698 85.8107 28.9867C85.6078 29.1035 85.4253 29.2801 85.2635 29.5164C85.1015 29.7526 84.9638 30.078 84.8504 30.4921C84.7461 30.8797 84.6937 31.1931 84.6932 31.4321C84.6926 31.671 84.7486 31.8556 84.8612 31.9857C84.9737 32.1156 85.1463 32.2033 85.3796 32.2484C85.6126 32.2936 85.9106 32.3161 86.2735 32.3161C86.478 32.3161 86.6922 32.3016 86.9164 32.2724C87.1402 32.2432 87.3232 32.2099 87.4656 32.1728L87.8222 30.8664ZM94.6023 33.0888L95.9983 27.975H97.3049L95.9088 33.0888H94.6023ZM107.865 29.0106C107.775 28.984 107.659 28.9548 107.517 28.923C107.375 28.8911 107.216 28.8606 107.041 28.8314C106.866 28.8021 106.678 28.7782 106.479 28.7597C106.279 28.7411 106.081 28.7317 105.883 28.7317C105.487 28.7317 105.178 28.7716 104.955 28.8513C104.733 28.931 104.595 29.0743 104.542 29.2813C104.51 29.4035 104.489 29.4964 104.48 29.5603C104.47 29.624 104.481 29.6757 104.514 29.7154C104.546 29.7554 104.602 29.7886 104.682 29.815C104.762 29.8416 104.876 29.8735 105.024 29.9107C105.373 29.985 105.726 30.0527 106.083 30.1138C106.44 30.1749 106.754 30.2611 107.027 30.3727C107.3 30.4841 107.505 30.6408 107.644 30.8426C107.782 31.0444 107.804 31.3232 107.71 31.679C107.626 31.987 107.496 32.2379 107.319 32.4317C107.141 32.6255 106.926 32.7781 106.674 32.8897C106.423 33.0012 106.133 33.0768 105.806 33.1167C105.478 33.1565 105.127 33.1764 104.751 33.1764C104.52 33.1764 104.278 33.1672 104.026 33.1485C103.774 33.13 103.529 33.102 103.292 33.0648C103.055 33.0276 102.835 32.9866 102.631 32.9414C102.428 32.8963 102.26 32.8445 102.127 32.7861C102.222 32.6268 102.31 32.4822 102.392 32.3521C102.475 32.222 102.565 32.0878 102.665 31.9498C102.747 31.9817 102.866 32.0187 103.02 32.0613C103.174 32.1038 103.355 32.1436 103.562 32.1808C103.77 32.218 104.001 32.2497 104.256 32.2764C104.511 32.3029 104.783 32.3161 105.073 32.3161C105.258 32.3161 105.427 32.3121 105.579 32.3042C105.732 32.2962 105.864 32.2737 105.977 32.2365C106.089 32.1993 106.184 32.1396 106.262 32.0574C106.339 31.975 106.399 31.8596 106.44 31.7108C106.47 31.5994 106.481 31.509 106.471 31.44C106.462 31.3709 106.432 31.3165 106.384 31.2767C106.335 31.2368 106.262 31.205 106.165 31.1811C106.069 31.1572 105.949 31.1319 105.807 31.1054C105.275 31.0098 104.826 30.9236 104.461 30.8466C104.096 30.7696 103.809 30.6701 103.6 30.5478C103.391 30.4257 103.26 30.2665 103.207 30.07C103.154 29.8735 103.173 29.608 103.266 29.2734C103.328 29.0398 103.444 28.8354 103.613 28.66C103.782 28.4849 103.99 28.3401 104.235 28.226C104.481 28.1118 104.752 28.0255 105.048 27.9672C105.344 27.9088 105.65 27.8796 105.967 27.8796C106.198 27.8796 106.433 27.8861 106.673 27.8994C106.912 27.9128 107.141 27.9326 107.36 27.9592C107.578 27.9857 107.78 28.0177 107.964 28.0547C108.148 28.0919 108.301 28.1371 108.421 28.1902L107.865 29.0106ZM114.867 33.0888L116.03 28.8273H114.08L114.412 27.975H119.648L119.316 28.8273H117.337L116.173 33.0888H114.867ZM123.906 33.0888L125.302 27.975H126.608L125.212 33.0888H123.906ZM137.037 32.8418C136.729 32.9481 136.364 33.0331 135.942 33.0968C135.521 33.1604 135.078 33.1924 134.617 33.1924C134.128 33.1924 133.698 33.1592 133.325 33.0928C132.952 33.0264 132.651 32.8977 132.423 32.7064C132.194 32.5154 132.053 32.2457 131.998 31.898C131.943 31.5502 131.993 31.0949 132.148 30.532C132.302 29.9691 132.502 29.5136 132.748 29.166C132.993 28.8181 133.281 28.5486 133.61 28.3574C133.939 28.1663 134.309 28.0374 134.722 27.9711C135.134 27.9048 135.585 27.8716 136.073 27.8716C137.003 27.8716 137.715 27.9778 138.209 28.1902L137.653 29.0106C137.479 28.9628 137.238 28.903 136.928 28.8314C136.619 28.7597 136.262 28.7239 135.86 28.7239C135.589 28.7239 135.334 28.7397 135.093 28.7716C134.852 28.8034 134.632 28.8805 134.432 29.0026C134.232 29.1248 134.05 29.3066 133.888 29.5483C133.725 29.7898 133.587 30.1177 133.474 30.532C133.36 30.9515 133.317 31.282 133.346 31.5237C133.375 31.7652 133.458 31.9458 133.595 32.0652C133.731 32.1848 133.91 32.2604 134.132 32.2923C134.353 32.3241 134.599 32.3401 134.869 32.3401C135.067 32.3401 135.268 32.3281 135.471 32.3042C135.675 32.2804 135.868 32.2524 136.049 32.2205C136.23 32.1887 136.397 32.1543 136.549 32.1171C136.701 32.0799 136.828 32.048 136.93 32.0214L137.037 32.8418ZM148.503 29.0106C148.413 28.984 148.297 28.9548 148.155 28.923C148.013 28.8911 147.854 28.8606 147.679 28.8314C147.504 28.8021 147.317 28.7782 147.117 28.7597C146.918 28.7411 146.719 28.7317 146.521 28.7317C146.125 28.7317 145.816 28.7716 145.594 28.8513C145.371 28.931 145.233 29.0743 145.18 29.2813C145.148 29.4035 145.127 29.4964 145.118 29.5603C145.108 29.624 145.119 29.6757 145.152 29.7154C145.184 29.7554 145.24 29.7886 145.32 29.815C145.4 29.8416 145.514 29.8735 145.662 29.9107C146.011 29.985 146.364 30.0527 146.721 30.1138C147.078 30.1749 147.393 30.2611 147.665 30.3727C147.938 30.4841 148.144 30.6408 148.282 30.8426C148.42 31.0444 148.442 31.3232 148.348 31.679C148.265 31.987 148.134 32.2379 147.957 32.4317C147.779 32.6255 147.564 32.7781 147.313 32.8897C147.061 33.0012 146.771 33.0768 146.444 33.1167C146.117 33.1565 145.765 33.1764 145.389 33.1764C145.158 33.1764 144.916 33.1672 144.664 33.1485C144.412 33.13 144.167 33.102 143.93 33.0648C143.693 33.0276 143.473 32.9866 143.269 32.9414C143.066 32.8963 142.898 32.8445 142.765 32.7861C142.86 32.6268 142.948 32.4822 143.031 32.3521C143.113 32.222 143.203 32.0878 143.303 31.9498C143.386 31.9817 143.504 32.0187 143.658 32.0613C143.812 32.1038 143.993 32.1436 144.201 32.1808C144.408 32.218 144.639 32.2497 144.894 32.2764C145.149 32.3029 145.421 32.3161 145.711 32.3161C145.896 32.3161 146.065 32.3121 146.218 32.3042C146.37 32.2962 146.503 32.2737 146.615 32.2365C146.728 32.1993 146.823 32.1396 146.9 32.0574C146.978 31.975 147.037 31.8596 147.078 31.7108C147.109 31.5994 147.119 31.509 147.11 31.44C147.1 31.3709 147.071 31.3165 147.022 31.2767C146.973 31.2368 146.9 31.205 146.803 31.1811C146.707 31.1572 146.587 31.1319 146.445 31.1054C145.913 31.0098 145.465 30.9236 145.1 30.8466C144.734 30.7696 144.447 30.6701 144.238 30.5478C144.029 30.4257 143.898 30.2665 143.845 30.07C143.792 29.8735 143.812 29.608 143.904 29.2734C143.967 29.0398 144.083 28.8354 144.252 28.66C144.421 28.4849 144.628 28.3401 144.873 28.226C145.119 28.1118 145.39 28.0255 145.686 27.9672C145.982 27.9088 146.288 27.8796 146.605 27.8796C146.836 27.8796 147.071 27.8861 147.311 27.8994C147.551 27.9128 147.779 27.9326 147.998 27.9592C148.216 27.9857 148.418 28.0177 148.602 28.0547C148.787 28.0919 148.939 28.1371 149.059 28.1902L148.503 29.0106Z" fill="white"/>
<g id="Layer1005">
<path id="path46" fill-rule="evenodd" clip-rule="evenodd" d="M166.073 25.211H159.803L156.533 21.8529H150.59L149.654 25.211H145.333L147.235 18.3834H159.236C159.969 18.3834 160.603 18.2783 161.137 18.0679C161.818 17.7958 162.232 17.3939 162.38 16.862C162.669 15.823 161.908 15.3035 160.094 15.3035H148.093L151.877 11.834H160.655C162.829 11.834 164.481 12.2299 165.611 13.0215C166.877 13.9244 167.278 15.2108 166.812 16.8806C166.551 17.8205 166.008 18.6711 165.185 19.4317C164.362 20.1923 163.354 20.7768 162.159 21.1848L166.073 25.211Z" fill="white"/>
<path id="path48" fill-rule="evenodd" clip-rule="evenodd" d="M128.412 25.211L131.984 21.7416H137.791L135.522 16.9362L126.946 25.211H121.602L133.829 13.3183C134.222 12.9224 134.711 12.5762 135.295 12.2793C135.938 11.9578 136.517 11.7969 137.031 11.7969C137.559 11.7969 138.048 11.9578 138.498 12.2793C138.895 12.5638 139.184 12.9101 139.366 13.3183L144.754 25.211H128.412Z" fill="white"/>
<path id="path50" fill-rule="evenodd" clip-rule="evenodd" d="M124.59 19.1254C123.46 23.1824 120.001 25.211 114.213 25.211H113.306C107.518 25.211 105.189 23.1824 106.319 19.1254L108.351 11.834H112.654L110.622 19.1254C110.284 20.3377 110.62 21.117 111.63 21.4632C112.166 21.6612 113.348 21.7601 115.174 21.7601C116.628 21.7601 117.704 21.6118 118.405 21.3147C119.348 20.9313 119.969 20.2015 120.269 19.1254L122.301 11.834H126.622L124.59 19.1254Z" fill="white"/>
<path id="path52" fill-rule="evenodd" clip-rule="evenodd" d="M104.316 25.211H98.0452L94.7748 21.8529H88.8324L87.8966 25.211H83.5749L85.4773 18.3834H97.4779C98.2112 18.3834 98.845 18.2783 99.3796 18.0679C100.06 17.7958 100.474 17.3939 100.622 16.862C100.912 15.823 100.15 15.3035 98.3361 15.3035H86.3355L90.1191 11.834H98.8977C101.071 11.834 102.723 12.2299 103.853 13.0215C105.119 13.9244 105.52 15.2108 105.055 16.8806C104.793 17.8205 104.25 18.6711 103.427 19.4317C102.604 20.1923 101.596 20.7768 100.402 21.1848L104.316 25.211Z" fill="white"/>
<path id="path54" fill-rule="evenodd" clip-rule="evenodd" d="M66.7701 25.211L70.3416 21.7416H76.149L73.8801 16.9362L65.3038 25.211H59.9595L72.187 13.3183C72.5803 12.9224 73.0691 12.5762 73.6534 12.2793C74.2962 11.9578 74.8746 11.7969 75.3891 11.7969C75.9167 11.7969 76.4055 11.9578 76.8561 12.2793C77.2528 12.5638 77.5421 12.9101 77.7241 13.3183L83.1118 25.211H66.7701Z" fill="white"/>
<path id="path56" fill-rule="evenodd" clip-rule="evenodd" d="M64.5363 11.8342L60.7914 15.3037H50.9515C50.4242 15.3037 50.1106 15.4832 50.0106 15.8418C49.9107 16.2004 50.1243 16.3798 50.6517 16.3798H57.7324C59.4174 16.3798 60.7157 16.7757 61.627 17.5673C62.5631 18.4084 62.8449 19.4969 62.4727 20.8327C62.1039 22.1562 61.2141 23.2261 59.8034 24.0424C58.48 24.8217 56.9695 25.2112 55.2716 25.2112H42.538L46.2777 21.7603H56.2332C56.6834 21.7603 57.1094 21.6862 57.5107 21.5376C58.0256 21.3522 58.3279 21.0986 58.4174 20.777C58.5105 20.4431 58.3495 20.1895 57.9347 20.0164C57.6219 19.8925 57.234 19.8308 56.7708 19.8308H49.6902C48.1209 19.8308 46.9055 19.4845 46.0438 18.7918C45.1186 18.0496 44.8267 17.0663 45.1678 15.8418C45.5126 14.6048 46.3541 13.6154 47.6929 12.8732C48.9407 12.1806 50.349 11.8342 51.9183 11.8342H64.5363Z" fill="white"/>
</g>
</g>
</svg>
