<svg width="265" height="68" viewBox="0 0 265 68" fill="none" xmlns="http://www.w3.org/2000/svg">
<path d="M225.744 0V13.2881C226.038 13.2881 226.311 13.2881 226.594 13.2881V51.6009V54.3327H187.231C185.984 48.6742 180.899 44.421 174.85 44.421C169.258 44.421 164.535 47.9997 162.812 52.9611C161.108 48.0072 156.378 44.421 150.805 44.421C145.395 44.421 140.785 47.7861 138.945 52.5302C137.116 47.7861 132.511 44.421 127.085 44.421C121.025 44.421 115.92 48.6742 114.689 54.3327H101V41.9477V0H225.744ZM107.124 48.2208H108.704V41.9552H107.124V48.2208ZM187.386 55.1871C187.466 55.7866 187.526 56.4012 187.526 57.0233C187.526 57.4055 187.496 57.7615 187.473 58.1437H226.586V55.1871H187.386ZM114.541 55.1871H101V58.1362H114.454C114.424 57.7615 114.394 57.398 114.394 57.0233C114.394 56.4012 114.454 55.7866 114.541 55.1871Z" fill="#E30016"/>
<path d="M226.949 0.670776C237.906 5.56855 243.955 11.0097 243.955 11.0097H226.949V0.670776Z" fill="#E30016"/>
<path d="M259.692 55.1871C259.692 54.4413 259.593 53.7031 259.438 52.9986H265V57.0233H259.484C259.612 56.4237 259.692 55.8166 259.692 55.1871Z" fill="#E30016"/>
<path d="M227.731 52.9986H231.978C231.861 53.6994 231.77 54.4338 231.766 55.1871C231.766 55.8091 231.834 56.4237 231.914 57.0158H227.731V52.9986Z" fill="#E30016"/>
<path fill-rule="evenodd" clip-rule="evenodd" d="M264.634 31.4477V35.8695L264.637 51.8819H258.456C256.96 46.0623 251.655 41.7454 245.319 41.7454C238.998 41.7454 233.705 46.0473 232.197 51.8819H227.644V13.2281H256.246L264.634 31.4477ZM230.776 25.7405V16.166H254.821L260.889 32.5494H249.978L241.813 25.7405H230.776Z" fill="#E30016"/>
<path fill-rule="evenodd" clip-rule="evenodd" d="M245.281 45.8637C251.296 45.8562 256.174 50.694 256.174 56.6597C256.174 62.6255 251.296 67.4558 245.281 67.4558C239.274 67.4558 234.396 62.633 234.396 56.6597C234.404 50.694 239.281 45.8637 245.281 45.8637ZM250.064 56.6485C250.064 59.2716 247.922 61.3926 245.281 61.3926C242.648 61.3926 240.509 59.2716 240.509 56.6485C240.509 54.0254 242.648 51.9119 245.281 51.9119C247.941 51.9119 250.064 54.0441 250.064 56.6485Z" fill="#222222"/>
<path d="M86.5261 57.2512C86.5261 56.6291 86.4656 56.0145 86.3863 55.415H96.5864V58.3716H86.4732C86.4958 57.9894 86.5261 57.6334 86.5261 57.2512Z" fill="#E30016"/>
<path d="M2.12719 55.415H13.5413C13.4544 56.0145 13.394 56.6291 13.394 57.2512C13.394 57.6155 13.4225 57.9691 13.4519 58.3328L13.4544 58.3641H2.12719V55.415Z" fill="#E30016"/>
<path fill-rule="evenodd" clip-rule="evenodd" d="M96.5939 0.227905V13.516L96.5939 51.8288V54.5606H86.2314C84.9845 48.9021 79.899 44.6489 73.85 44.6489C68.2582 44.6489 63.5353 48.2276 61.8124 53.189C60.1084 48.2351 55.3781 44.6489 49.8051 44.6489C44.3946 44.6489 39.7851 48.014 37.9451 52.7581C36.1165 48.014 31.5108 44.6489 26.0852 44.6489C20.0248 44.6489 14.9204 48.9021 13.6887 54.5606H3.24555V42.1756H2.28882e-05V0.227905H96.5939ZM7.7039 48.4487H6.12458V42.1831H7.7039V48.4487Z" fill="#E30016"/>
<path fill-rule="evenodd" clip-rule="evenodd" d="M26.1559 47C31.7629 47 36.3157 51.5006 36.3157 57.0653C36.3157 62.6339 31.7629 67.142 26.1559 67.142C20.5679 67.142 15.9999 62.6339 15.9999 57.0653C15.9999 51.508 20.5528 47 26.1559 47ZM30.6294 57.0541C30.6294 59.5011 28.6194 61.476 26.1635 61.476C23.7038 61.476 21.7051 59.5011 21.7051 57.0541C21.7051 54.6146 23.7227 52.6397 26.1635 52.6397C28.6383 52.6397 30.6294 54.6333 30.6294 57.0541Z" fill="#222222"/>
<path fill-rule="evenodd" clip-rule="evenodd" d="M50.156 46.9347C55.763 46.9347 60.3158 51.4352 60.3158 57C60.3158 62.5686 55.763 67.0766 50.156 67.0766C44.568 67.0766 40.0001 62.5686 40.0001 57C40.0001 51.4427 44.5529 46.9347 50.156 46.9347ZM54.6295 56.9888C54.6295 59.4358 52.6195 61.4107 50.1636 61.4107C47.704 61.4107 45.7053 59.4358 45.7053 56.9888C45.7053 54.5493 47.7229 52.5744 50.1636 52.5744C52.6384 52.5744 54.6295 54.568 54.6295 56.9888Z" fill="#222222"/>
<path fill-rule="evenodd" clip-rule="evenodd" d="M74.1559 47C79.7629 47 84.3157 51.5006 84.3157 57.0653C84.3157 62.6339 79.7629 67.142 74.1559 67.142C68.5679 67.142 63.9999 62.6339 63.9999 57.0653C63.9999 51.508 68.5528 47 74.1559 47ZM78.6294 57.0541C78.6294 59.5011 76.6194 61.476 74.1635 61.476C71.7038 61.476 69.7051 59.5011 69.7051 57.0541C69.7051 54.6146 71.7227 52.6397 74.1635 52.6397C76.6383 52.6397 78.6294 54.6333 78.6294 57.0541Z" fill="#222222"/>
<path fill-rule="evenodd" clip-rule="evenodd" d="M127.156 47.0653C132.763 47.0653 137.316 51.5659 137.316 57.1307C137.316 62.6992 132.763 67.2073 127.156 67.2073C121.568 67.2073 117 62.6992 117 57.1307C117 51.5734 121.553 47.0653 127.156 47.0653ZM131.629 57.1194C131.629 59.5664 129.619 61.5413 127.163 61.5413C124.704 61.5413 122.705 59.5664 122.705 57.1194C122.705 54.6799 124.723 52.7051 127.163 52.7051C129.638 52.7051 131.629 54.6986 131.629 57.1194Z" fill="#222222"/>
<path fill-rule="evenodd" clip-rule="evenodd" d="M151.156 47C156.763 47 161.316 51.5006 161.316 57.0653C161.316 62.6339 156.763 67.142 151.156 67.142C145.568 67.142 141 62.6339 141 57.0653C141 51.508 145.553 47 151.156 47ZM155.63 57.0541C155.63 59.5011 153.62 61.476 151.164 61.476C148.704 61.476 146.705 59.5011 146.705 57.0541C146.705 54.6146 148.723 52.6397 151.164 52.6397C153.638 52.6397 155.63 54.6333 155.63 57.0541Z" fill="#222222"/>
<path fill-rule="evenodd" clip-rule="evenodd" d="M175.156 47.0653C180.763 47.0653 185.316 51.5659 185.316 57.1307C185.316 62.6992 180.763 67.2073 175.156 67.2073C169.568 67.2073 165 62.6992 165 57.1307C165 51.5734 169.553 47.0653 175.156 47.0653ZM179.629 57.1194C179.629 59.5664 177.619 61.5413 175.163 61.5413C172.704 61.5413 170.705 59.5664 170.705 57.1194C170.705 54.6799 172.723 52.7051 175.163 52.7051C177.638 52.7051 179.629 54.6986 179.629 57.1194Z" fill="#222222"/>
</svg>
