<svg width="198" height="67" viewBox="0 0 198 67" fill="none" xmlns="http://www.w3.org/2000/svg">
<g id="Group">
<path id="Vector" d="M176.955 10.7818C176.955 10.7818 170.906 5.34064 159.949 0.442872V10.7818H176.955ZM158.744 -0.227905V13.0602C159.039 13.0602 159.311 13.0602 159.594 13.0602V51.373V54.1048H86.2313C84.9845 48.4463 79.899 44.1931 73.85 44.1931C68.2581 44.1931 63.5353 47.7718 61.8124 52.7332C60.1084 47.7793 55.378 44.1931 49.8051 44.1931C44.3946 44.1931 39.7851 47.5582 37.9451 52.3023C36.1164 47.5582 31.5107 44.1931 26.0851 44.1931C20.0248 44.1931 14.9204 48.4463 13.6886 54.1048H3.24553V41.7198H0V-0.227905H158.744ZM6.12456 47.9929H7.70387V41.7273H6.12456V47.9929ZM192.438 52.7707C192.593 53.4752 192.692 54.2134 192.692 54.9592C192.692 55.5887 192.612 56.1958 192.484 56.7953H198V52.7707H192.438ZM164.978 52.7707H160.731V56.7879H164.914C164.834 56.1958 164.766 55.5812 164.766 54.9592C164.77 54.2059 164.861 53.4715 164.978 52.7707ZM86.3863 54.9592C86.4656 55.5587 86.5261 56.1733 86.5261 56.7953C86.5261 57.1776 86.4958 57.5336 86.4732 57.9158H159.586V54.9592H86.3863ZM13.5413 54.9592H2.12717V57.9083H13.4544C13.4242 57.5336 13.394 57.1701 13.394 56.7953C13.394 56.1733 13.4544 55.5587 13.5413 54.9592ZM197.634 31.2198V35.6416L197.637 51.654H191.456C189.96 45.8344 184.655 41.5174 178.319 41.5174C171.998 41.5174 166.705 45.8194 165.197 51.654H160.644V13.0002H189.246L197.634 31.2198ZM163.776 15.9381V25.5126H174.813L182.978 32.3215H193.889L187.821 15.9381H163.776Z" fill="#E30016"/>
<path id="Vector_2" fill-rule="evenodd" clip-rule="evenodd" d="M178.281 45.6358C184.296 45.6283 189.174 50.4661 189.174 56.4318C189.174 62.3976 184.296 67.2279 178.281 67.2279C172.274 67.2279 167.396 62.4051 167.396 56.4318C167.404 50.4661 172.281 45.6358 178.281 45.6358ZM183.064 56.4206C183.064 59.0437 180.922 61.1647 178.281 61.1647C175.648 61.1647 173.509 59.0437 173.509 56.4206C173.509 53.7975 175.648 51.684 178.281 51.684C180.941 51.684 183.064 53.8162 183.064 56.4206Z" fill="#222222"/>
<path id="Vector_3" fill-rule="evenodd" clip-rule="evenodd" d="M26.2287 46.3665C31.8356 46.3665 36.3884 50.867 36.3884 56.4318C36.3884 62.0003 31.8356 66.5084 26.2287 66.5084C20.6406 66.5084 16.0727 62.0003 16.0727 56.4318C16.0727 50.8745 20.6255 46.3665 26.2287 46.3665ZM30.7021 56.4206C30.7021 58.8676 28.6921 60.8424 26.2362 60.8424C23.7766 60.8424 21.7779 58.8676 21.7779 56.4206C21.7779 53.981 23.7955 52.0062 26.2362 52.0062C28.711 52.0062 30.7021 53.9998 30.7021 56.4206Z" fill="#222222"/>
<path id="Vector_4" fill-rule="evenodd" clip-rule="evenodd" d="M50.1559 47C55.7629 47 60.3157 51.5006 60.3157 57.0653C60.3157 62.6339 55.7629 67.142 50.1559 67.142C44.5679 67.142 39.9999 62.6339 39.9999 57.0653C39.9999 51.508 44.5527 47 50.1559 47ZM54.6294 57.0541C54.6294 59.5011 52.6194 61.476 50.1635 61.476C47.7038 61.476 45.7051 59.5011 45.7051 57.0541C45.7051 54.6146 47.7227 52.6397 50.1635 52.6397C52.6382 52.6397 54.6294 54.6333 54.6294 57.0541Z" fill="#222222"/>
<path id="Vector_5" fill-rule="evenodd" clip-rule="evenodd" d="M74.1559 47C79.7629 47 84.3157 51.5006 84.3157 57.0653C84.3157 62.6339 79.7629 67.142 74.1559 67.142C68.5679 67.142 63.9999 62.6339 63.9999 57.0653C63.9999 51.508 68.5527 47 74.1559 47ZM78.6294 57.0541C78.6294 59.5011 76.6194 61.476 74.1635 61.476C71.7038 61.476 69.7051 59.5011 69.7051 57.0541C69.7051 54.6146 71.7227 52.6397 74.1635 52.6397C76.6382 52.6397 78.6294 54.6333 78.6294 57.0541Z" fill="#222222"/>
</g>
</svg>
